<svg width="250" height="41" viewBox="0 0 250 41" fill="none" xmlns="http://www.w3.org/2000/svg">
<path d="M6.5 39.1132H37.5C40 39.1132 44.5 40.1132 37.5 33.1132C45.5 32.1132 46.5 33.6132 45.5 17.1132C44.4394 -0.386837 49.5 2.11316 24.5 1.11317C2 1.11318 2 -1.38684 1 17.1132C1 29.6132 1.3 32.2132 6.5 32.6132C20 33.1132 25 33.6132 25 29.1132C25.5 24.1132 22.8 13.9132 8 13.1132C7.16667 13.2798 5.6 13.2132 6 11.6132C6.5 9.61316 8 4.61316 10 4.61316C12 4.61316 12 10.6132 13 11.1132C14 11.6132 21.5 4.11316 22.5 5.61316C23.5 7.11316 21.5 12.1132 23 12.6132C24.5 13.1132 32.5 7.61316 33.5 9.61316C34.5 11.6132 27 18.6132 28.5 19.6132C30 20.6132 40 18.1132 40.5 20.1132C41 22.1132 30 25.1132 30 26.6132C30 28.1132 35 28.1132 35 29.6132C35 30.8132 30.6667 32.4465 28.5 33.1132" stroke="#0982D9" stroke-width="1.8" stroke-linecap="round" stroke-linejoin="round"/>
<path d="M240.696 25.646H246.142C247.281 25.646 248.144 25.9027 248.732 26.416C249.32 26.92 249.614 27.6993 249.614 28.754C249.614 29.874 249.306 30.672 248.69 31.148C248.074 31.624 247.141 31.862 245.89 31.862H241.858L241.872 30.504H246.03C246.74 30.504 247.239 30.3593 247.528 30.07C247.818 29.7713 247.962 29.3327 247.962 28.754C247.962 28.166 247.818 27.7273 247.528 27.438C247.239 27.1393 246.74 26.99 246.03 26.99H241.536L242.32 26.22V35.418H240.696V25.646Z" fill="#0982D9"/>
<path d="M230.748 25.646H239.204V27.088H235.788V35.418H234.164V27.088H230.748V25.646Z" fill="#0982D9"/>
<path d="M227.644 25.646H229.254V35.418H227.644V25.646ZM220.462 25.646H222.086V35.418H220.462V25.646ZM221.526 29.734H227.98V31.134H221.526V29.734Z" fill="#0982D9"/>
<path d="M218.417 27.088H212.005L212.789 26.304V34.76L212.005 33.976H218.417V35.418H211.165V25.646H218.417V27.088ZM212.327 31.134V29.762H218.305V31.134H212.327Z" fill="#0982D9"/>
<path d="M199.708 25.646H201.332V34.802L200.562 34.032H207.506L206.736 34.802V25.646H208.36V35.418H199.708V25.646ZM207.926 34.032H209.508C209.471 34.4613 209.447 34.9653 209.438 35.544L209.382 37.672H207.926V34.032Z" fill="#0982D9"/>
<path d="M184.054 25.646H185.664V34.466H186.028C186.196 34.102 186.452 33.5607 186.798 32.842L187.218 32.058L190.228 25.646H193.196V35.418H191.586V26.598H191.222L190.942 27.228C190.596 27.9467 190.335 28.5067 190.158 28.908L187.022 35.418H184.054V25.646ZM188.758 25.044C187.778 25.044 187.04 24.8853 186.546 24.568C186.06 24.2413 185.808 23.7187 185.79 23H187.134C187.162 23.4107 187.297 23.7047 187.54 23.882C187.782 24.0593 188.188 24.148 188.758 24.148C189.318 24.148 189.719 24.0593 189.962 23.882C190.214 23.7047 190.354 23.4107 190.382 23H191.726C191.716 23.7187 191.464 24.2413 190.97 24.568C190.475 24.8853 189.738 25.044 188.758 25.044Z" fill="#0982D9"/>
<path d="M179.996 25.646H181.62V35.418H179.996V25.646ZM175.236 29.202C176.365 29.202 177.224 29.4587 177.812 29.972C178.409 30.476 178.708 31.2553 178.708 32.31C178.708 33.43 178.395 34.228 177.77 34.704C177.154 35.18 176.22 35.418 174.97 35.418H169.972V25.646H171.596V34.844L170.812 34.074H175.124C175.833 34.074 176.332 33.9293 176.622 33.64C176.911 33.3413 177.056 32.898 177.056 32.31C177.056 31.7313 176.911 31.2973 176.622 31.008C176.332 30.7093 175.833 30.56 175.124 30.56H171.05V29.202H175.236Z" fill="#0982D9"/>
<path d="M165.929 25.646H167.539V35.418H165.929V25.646ZM158.747 25.646H160.371V35.418H158.747V25.646ZM159.811 29.734H166.265V31.134H159.811V29.734Z" fill="#0982D9"/>
<path d="M148.247 25.646H153.693C154.832 25.646 155.695 25.9027 156.283 26.416C156.871 26.92 157.165 27.6993 157.165 28.754C157.165 29.874 156.857 30.672 156.241 31.148C155.625 31.624 154.692 31.862 153.441 31.862H149.409L149.423 30.504H153.581C154.29 30.504 154.79 30.3593 155.079 30.07C155.368 29.7713 155.513 29.3327 155.513 28.754C155.513 28.166 155.368 27.7273 155.079 27.438C154.79 27.1393 154.29 26.99 153.581 26.99H149.087L149.871 26.22V35.418H148.247V25.646Z" fill="#0982D9"/>
<path d="M146.202 27.088H139.79L140.574 26.304V34.76L139.79 33.976H146.202V35.418H138.95V25.646H146.202V27.088ZM140.112 31.134V29.762H146.09V31.134H140.112Z" fill="#0982D9"/>
<path d="M129.002 25.646H137.458V27.088H134.042V35.418H132.418V27.088H129.002V25.646Z" fill="#0982D9"/>
<path d="M123.039 35.642C121.377 35.642 120.103 35.2733 119.217 34.536C118.33 33.7893 117.854 32.618 117.789 31.022V30.084C117.882 28.544 118.372 27.4147 119.259 26.696C120.145 25.968 121.405 25.604 123.039 25.604C124.775 25.604 126.091 26.01 126.987 26.822C127.892 27.6247 128.345 28.8893 128.345 30.616C128.345 32.352 127.897 33.626 127.001 34.438C126.105 35.2407 124.784 35.642 123.039 35.642ZM115.731 29.776H118.461L118.475 31.162H115.731V29.776ZM123.039 34.228C123.963 34.228 124.691 34.088 125.223 33.808C125.755 33.5187 126.133 33.1127 126.357 32.59C126.581 32.0673 126.693 31.4093 126.693 30.616C126.693 29.8133 126.581 29.1553 126.357 28.642C126.142 28.1193 125.764 27.718 125.223 27.438C124.691 27.158 123.963 27.018 123.039 27.018C122.124 27.018 121.401 27.158 120.869 27.438C120.337 27.718 119.959 28.1193 119.735 28.642C119.511 29.1647 119.399 29.8227 119.399 30.616C119.399 31.4 119.511 32.058 119.735 32.59C119.959 33.1127 120.337 33.5187 120.869 33.808C121.41 34.088 122.133 34.228 123.039 34.228ZM114.765 25.646H116.389V35.418H114.765V25.646Z" fill="#0982D9"/>
<path d="M109.71 29.202C110.839 29.202 111.698 29.4587 112.286 29.972C112.883 30.476 113.182 31.2553 113.182 32.31C113.182 33.43 112.869 34.228 112.244 34.704C111.628 35.18 110.694 35.418 109.444 35.418H104.306V25.646H105.93V34.844L105.146 34.074H109.598C110.307 34.074 110.806 33.9293 111.096 33.64C111.385 33.3413 111.53 32.898 111.53 32.31C111.53 31.7313 111.385 31.2973 111.096 31.008C110.806 30.7093 110.307 30.56 109.598 30.56H105.384V29.202H109.71Z" fill="#0982D9"/>
<path d="M93.122 25.646H101.858V35.418H100.234V26.262L101.018 27.046H93.976L94.746 26.262V35.418H93.122V25.646Z" fill="#0982D9"/>
<path d="M80.5575 25.646H83.7075C83.7915 26.15 84.0762 27.6387 84.5615 30.112C84.7202 30.868 84.8742 31.6147 85.0235 32.352C85.1729 33.0893 85.3175 33.7893 85.4575 34.452H85.8075C85.9569 33.556 86.3349 31.792 86.9415 29.16C87.0535 28.5533 87.1609 27.942 87.2635 27.326C87.3662 26.71 87.4689 26.15 87.5715 25.646H90.6795V35.418H89.1255V26.598H88.7755C88.6169 27.3447 88.4209 28.1987 88.1875 29.16C87.9635 30.112 87.7535 31.036 87.5575 31.932C87.4455 32.5013 87.3382 33.0893 87.2355 33.696C87.1329 34.2933 87.0255 34.8673 86.9135 35.418H84.3235C84.2209 34.8673 84.1135 34.2933 84.0015 33.696C83.8989 33.0893 83.7962 32.5013 83.6935 31.932C83.4882 31.036 83.2829 30.1447 83.0775 29.258C82.8722 28.3713 82.6669 27.4847 82.4615 26.598H82.1115V35.418H80.5575V25.646Z" fill="#0982D9"/>
<path d="M67.5955 30.56C67.5955 28.8147 68.0668 27.536 69.0095 26.724C69.9615 25.9027 71.3475 25.492 73.1675 25.492C75.0062 25.492 76.3968 25.9027 77.3395 26.724C78.2822 27.536 78.7535 28.8147 78.7535 30.56C78.7535 32.3053 78.2822 33.584 77.3395 34.396C76.3968 35.208 75.0062 35.614 73.1675 35.614C71.3475 35.614 69.9615 35.208 69.0095 34.396C68.0668 33.584 67.5955 32.3053 67.5955 30.56ZM69.3315 30.56C69.3315 31.3627 69.4482 32.03 69.6815 32.562C69.9148 33.0847 70.3162 33.486 70.8855 33.766C71.4548 34.046 72.2155 34.186 73.1675 34.186C74.1475 34.186 74.9175 34.046 75.4775 33.766C76.0468 33.486 76.4435 33.0847 76.6675 32.562C76.9008 32.03 77.0175 31.3627 77.0175 30.56C77.0175 29.7573 76.9008 29.0947 76.6675 28.572C76.4435 28.04 76.0468 27.634 75.4775 27.354C74.9175 27.0647 74.1475 26.92 73.1675 26.92C72.2155 26.92 71.4548 27.0647 70.8855 27.354C70.3162 27.634 69.9148 28.04 69.6815 28.572C69.4482 29.0947 69.3315 29.7573 69.3315 30.56Z" fill="#0982D9"/>
<path d="M61.334 29.706L65.31 25.646H67.144L62.118 30.826L62.09 29.776L67.242 35.418H65.31L61.25 31.022H60.186V29.706H61.334ZM59.038 25.646H60.662V35.418H59.038V25.646Z" fill="#0982D9"/>
<path d="M225.835 4.646H227.445V13.466H227.809C227.977 13.102 228.234 12.5607 228.579 11.842L228.999 11.058L232.009 4.646H234.977V14.418H233.367V5.598H233.003L232.723 6.228C232.378 6.94667 232.116 7.50667 231.939 7.908L228.803 14.418H225.835V4.646ZM230.539 4.044C229.559 4.044 228.822 3.88533 228.327 3.568C227.842 3.24133 227.59 2.71867 227.571 2H228.915C228.943 2.41067 229.078 2.70467 229.321 2.882C229.564 3.05933 229.97 3.148 230.539 3.148C231.099 3.148 231.5 3.05933 231.743 2.882C231.995 2.70467 232.135 2.41067 232.163 2H233.507C233.498 2.71867 233.246 3.24133 232.751 3.568C232.256 3.88533 231.519 4.044 230.539 4.044Z" fill="#0982D9"/>
<path d="M214.255 4.646H215.865V13.466H216.229C216.397 13.102 216.653 12.5607 216.999 11.842L217.419 11.058L220.429 4.646H223.397V14.418H221.787V5.598H221.423L221.143 6.228C220.797 6.94667 220.536 7.50667 220.359 7.908L217.223 14.418H214.255V4.646Z" fill="#0982D9"/>
<path d="M207.145 8.706L211.121 4.646H212.955L207.929 9.826L207.901 8.776L213.053 14.418H211.121L207.061 10.022H205.997V8.706H207.145ZM204.849 4.646H206.473V14.418H204.849V4.646Z" fill="#0982D9"/>
<path d="M197.54 14.628C195.73 14.628 194.348 14.2173 193.396 13.396C192.454 12.5653 191.982 11.2867 191.982 9.56C191.982 7.84267 192.454 6.56867 193.396 5.738C194.348 4.90733 195.73 4.492 197.54 4.492C199.099 4.492 200.354 4.79533 201.306 5.402C202.268 5.99933 202.842 6.92333 203.028 8.174H201.292C201.115 7.39 200.723 6.82067 200.116 6.466C199.51 6.11133 198.651 5.934 197.54 5.934C196.588 5.934 195.828 6.074 195.258 6.354C194.698 6.634 194.302 7.04 194.068 7.572C193.835 8.09467 193.718 8.75733 193.718 9.56C193.718 10.3627 193.835 11.03 194.068 11.562C194.302 12.0847 194.698 12.4907 195.258 12.78C195.828 13.06 196.588 13.2 197.54 13.2C198.651 13.2 199.51 13.018 200.116 12.654C200.732 12.29 201.124 11.716 201.292 10.932H203.028C202.851 12.192 202.282 13.1253 201.32 13.732C200.368 14.3293 199.108 14.628 197.54 14.628Z" fill="#0982D9"/>
<path d="M190.567 6.088H184.155L184.939 5.304V13.76L184.155 12.976H190.567V14.418H183.315V4.646H190.567V6.088ZM184.477 10.134V8.762H190.455V10.134H184.477Z" fill="#0982D9"/>
<path d="M179.303 13.816V4.646H180.871V14.418H169.097V4.646H170.679V13.816L169.895 13.032H180.087L179.303 13.816ZM174.207 4.646H175.775V13.466H174.207V4.646Z" fill="#0982D9"/>
<path d="M156.135 9.56C156.135 7.81467 156.606 6.536 157.549 5.724C158.501 4.90267 159.887 4.492 161.707 4.492C163.545 4.492 164.936 4.90267 165.879 5.724C166.821 6.536 167.293 7.81467 167.293 9.56C167.293 11.3053 166.821 12.584 165.879 13.396C164.936 14.208 163.545 14.614 161.707 14.614C159.887 14.614 158.501 14.208 157.549 13.396C156.606 12.584 156.135 11.3053 156.135 9.56ZM157.871 9.56C157.871 10.3627 157.987 11.03 158.221 11.562C158.454 12.0847 158.855 12.486 159.425 12.766C159.994 13.046 160.755 13.186 161.707 13.186C162.687 13.186 163.457 13.046 164.017 12.766C164.586 12.486 164.983 12.0847 165.207 11.562C165.44 11.03 165.557 10.3627 165.557 9.56C165.557 8.75733 165.44 8.09467 165.207 7.572C164.983 7.04 164.586 6.634 164.017 6.354C163.457 6.06467 162.687 5.92 161.707 5.92C160.755 5.92 159.994 6.06467 159.425 6.354C158.855 6.634 158.454 7.04 158.221 7.572C157.987 8.09467 157.871 8.75733 157.871 9.56Z" fill="#0982D9"/>
<path d="M152.722 4.646H154.332V14.418H152.722V4.646ZM145.54 4.646H147.164V14.418H145.54V4.646ZM146.604 8.734H153.058V10.134H146.604V8.734Z" fill="#0982D9"/>
<path d="M138.433 14.642C136.772 14.642 135.498 14.2733 134.611 13.536C133.724 12.7893 133.248 11.618 133.183 10.022V9.084C133.276 7.544 133.766 6.41467 134.653 5.696C135.54 4.968 136.8 4.604 138.433 4.604C140.169 4.604 141.485 5.01 142.381 5.822C143.286 6.62467 143.739 7.88933 143.739 9.616C143.739 11.352 143.291 12.626 142.395 13.438C141.499 14.2407 140.178 14.642 138.433 14.642ZM131.125 8.776H133.855L133.869 10.162H131.125V8.776ZM138.433 13.228C139.357 13.228 140.085 13.088 140.617 12.808C141.149 12.5187 141.527 12.1127 141.751 11.59C141.975 11.0673 142.087 10.4093 142.087 9.616C142.087 8.81333 141.975 8.15533 141.751 7.642C141.536 7.11933 141.158 6.718 140.617 6.438C140.085 6.158 139.357 6.018 138.433 6.018C137.518 6.018 136.795 6.158 136.263 6.438C135.731 6.718 135.353 7.11933 135.129 7.642C134.905 8.16467 134.793 8.82267 134.793 9.616C134.793 10.4 134.905 11.058 135.129 11.59C135.353 12.1127 135.731 12.5187 136.263 12.808C136.804 13.088 137.528 13.228 138.433 13.228ZM130.159 4.646H131.783V14.418H130.159V4.646Z" fill="#0982D9"/>
<path d="M127.725 9.7V11.044H121.915V9.7H127.725Z" fill="#0982D9"/>
<path d="M108.953 9.56C108.953 7.81467 109.424 6.536 110.367 5.724C111.319 4.90267 112.705 4.492 114.525 4.492C116.364 4.492 117.754 4.90267 118.697 5.724C119.64 6.536 120.111 7.81467 120.111 9.56C120.111 11.3053 119.64 12.584 118.697 13.396C117.754 14.208 116.364 14.614 114.525 14.614C112.705 14.614 111.319 14.208 110.367 13.396C109.424 12.584 108.953 11.3053 108.953 9.56ZM110.689 9.56C110.689 10.3627 110.806 11.03 111.039 11.562C111.272 12.0847 111.674 12.486 112.243 12.766C112.812 13.046 113.573 13.186 114.525 13.186C115.505 13.186 116.275 13.046 116.835 12.766C117.404 12.486 117.801 12.0847 118.025 11.562C118.258 11.03 118.375 10.3627 118.375 9.56C118.375 8.75733 118.258 8.09467 118.025 7.572C117.801 7.04 117.404 6.634 116.835 6.354C116.275 6.06467 115.505 5.92 114.525 5.92C113.573 5.92 112.812 6.06467 112.243 6.354C111.674 6.634 111.272 7.04 111.039 7.572C110.806 8.09467 110.689 8.75733 110.689 9.56Z" fill="#0982D9"/>
<path d="M102.691 8.706L106.667 4.646H108.501L103.475 9.826L103.447 8.776L108.599 14.418H106.667L102.607 10.022H101.543V8.706H102.691ZM100.395 4.646H102.019V14.418H100.395V4.646Z" fill="#0982D9"/>
<path d="M93.0871 14.628C91.2764 14.628 89.8951 14.2173 88.9431 13.396C88.0004 12.5653 87.5291 11.2867 87.5291 9.56C87.5291 7.84267 88.0004 6.56867 88.9431 5.738C89.8951 4.90733 91.2764 4.492 93.0871 4.492C94.6458 4.492 95.9011 4.79533 96.8531 5.402C97.8144 5.99933 98.3884 6.92333 98.5751 8.174H96.8391C96.6618 7.39 96.2698 6.82067 95.6631 6.466C95.0564 6.11133 94.1978 5.934 93.0871 5.934C92.1351 5.934 91.3744 6.074 90.8051 6.354C90.2451 6.634 89.8484 7.04 89.6151 7.572C89.3818 8.09467 89.2651 8.75733 89.2651 9.56C89.2651 10.3627 89.3818 11.03 89.6151 11.562C89.8484 12.0847 90.2451 12.4907 90.8051 12.78C91.3744 13.06 92.1351 13.2 93.0871 13.2C94.1978 13.2 95.0564 13.018 95.6631 12.654C96.2791 12.29 96.6711 11.716 96.8391 10.932H98.5751C98.3978 12.192 97.8284 13.1253 96.8671 13.732C95.9151 14.3293 94.6551 14.628 93.0871 14.628Z" fill="#0982D9"/>
<path d="M78.4164 4.646H86.8724V6.088H83.4564V14.418H81.8324V6.088H78.4164V4.646Z" fill="#0982D9"/>
<path d="M77.3095 6.088H70.8975L71.6815 5.304V13.76L70.8975 12.976H77.3095V14.418H70.0575V4.646H77.3095V6.088ZM71.2195 10.134V8.762H77.1975V10.134H71.2195Z" fill="#0982D9"/>
<path d="M57.904 13.06H58.198C58.5993 13.06 58.9073 12.9013 59.122 12.584C59.346 12.2573 59.5047 11.8607 59.598 11.394C59.6913 10.9273 59.7753 10.3253 59.85 9.588V9.49C59.9153 8.80867 59.9853 7.60934 60.06 5.892C60.06 5.668 60.0647 5.45334 60.074 5.248C60.0833 5.04267 60.0927 4.842 60.102 4.646H67.242V13.046H68.53C68.502 13.5873 68.4787 14.0913 68.46 14.558L68.404 16.672H66.948V14.418H59.416L59.374 16.672H57.918L57.904 13.06ZM65.618 13.046V5.99H61.6L61.53 7.362C61.4927 8.12734 61.446 8.84133 61.39 9.504V9.644C61.3153 10.4373 61.2173 11.1233 61.096 11.702C60.9747 12.2713 60.774 12.7193 60.494 13.046H65.618Z" fill="#0982D9"/>
</svg>
