<svg width="47" height="41" viewBox="0 0 47 41" fill="none" xmlns="http://www.w3.org/2000/svg">
<path d="M6.5 40H37.5C40 40 44.5 41 37.5 34C45.5 33 46.5 34.5 45.5 18C44.4394 0.5 49.5 3 24.5 2.00001C2 2.00001 2 -0.5 1 18C1 30.5 1.3 33.1 6.5 33.5C20 34 25 34.5 25 30C25.5 25 22.8 14.8 8 14C7.16667 14.1667 5.6 14.1 6 12.5C6.5 10.5 8 5.5 10 5.5C12 5.5 12 11.5 13 12C14 12.5 21.5 5 22.5 6.5C23.5 8 21.5 13 23 13.5C24.5 14 32.5 8.5 33.5 10.5C34.5 12.5 27 19.5 28.5 20.5C30 21.5 40 19 40.5 21C41 23 30 26 30 27.5C30 29 35 29 35 30.5C35 31.7 30.6667 33.3333 28.5 34" stroke="white" stroke-width="1.8" stroke-linecap="round" stroke-linejoin="round"/>
</svg>
